<svg width="877" height="345" viewBox="0 0 877 345" fill="none" xmlns="http://www.w3.org/2000/svg">
<path d="M0 0.591553H70.6907V71.2822H0V0.591553Z" fill="#F02A7C" fill-opacity="0.73"/>
<path d="M70.6907 71.2822H141.381V141.973H70.6907V71.2822Z" fill="#F02A7C" fill-opacity="0.28"/>
<path d="M70.6907 250.611H141.381V321.302H70.6907V250.611Z" fill="#F02A7C"/>
<path d="M141.381 168.273H212.072V238.964H141.381V168.273Z" fill="#F02A7C"/>
<path d="M348.111 84.9487H418.801V155.639H348.111V84.9487Z" fill="#F02A7C" fill-opacity="0.98"/>
<path d="M562.223 155.639H632.914V226.33H562.223V155.639Z" fill="#F02A7C" fill-opacity="0.5"/>
<path d="M805.938 71.2822H876.628V141.973H805.938V71.2822Z" fill="#F02A7C" fill-opacity="0.82"/>
<path d="M367.623 274.309H438.314V345H367.623V274.309Z" fill="#F02A7C"/>
<path d="M438.314 203.619H509.005V274.309H438.314V203.619Z" fill="#F02A7C"/>
<path d="M664.556 274.309H735.247V345H664.556V274.309Z" fill="#F02A7C"/>
<path d="M735.247 214.12H805.938V284.811H735.247V214.12Z" fill="#F02A7C"/>
<path d="M805.938 274.309H876.628V345H805.938V274.309Z" fill="#F02A7C"/>
</svg>
