<svg width="60" height="60" viewBox="0 0 252 61" fill="none" xmlns="http://www.w3.org/2000/svg">
<path fill-rule="evenodd" clip-rule="evenodd" d="M17.9688 34.492C27.2223 34.492 34.7237 26.9906 34.7237 17.7371C34.7237 17.289 34.7062 16.8451 34.6716 16.4059L34.6751 16.43L34.6767 16.442V1.05242C30.7463 0.971372 28.5419 3.16222 28.3428 4.57921C25.4896 2.32659 21.8862 0.982178 17.9688 0.982178C8.71532 0.982178 1.21388 8.48362 1.21388 17.7371C1.21388 26.9906 8.71532 34.492 17.9688 34.492ZM28.3507 4.58538C28.3756 4.60506 28.4004 4.62481 28.4252 4.64463C28.3877 4.61429 28.3625 4.59457 28.3507 4.58538ZM25.4133 37.079H0.300049C0.300049 41.7921 4.39951 44.2317 6.44925 44.8623H25.1981C29.3243 47.181 28.1136 51.9649 25.1981 52.7917L23.7791 53.0757V60.73H25.4133C41.061 56.5639 36.8696 38.4863 25.4133 37.079ZM17.9688 26.1668C22.6259 26.1668 26.4013 22.3965 26.4013 17.7456C26.4013 13.0947 22.6259 9.32445 17.9688 9.32445C13.3117 9.32445 9.53635 13.0947 9.53635 17.7456C9.53635 22.3965 13.3117 26.1668 17.9688 26.1668Z" fill="black"/>
<path d="M54.3672 36.7326C53.5739 36.7326 52.8373 36.5788 52.1574 36.2713C51.4828 35.9637 50.8947 35.5401 50.3928 35.0004C49.891 34.4554 49.4997 33.8267 49.2191 33.1144C48.9385 32.4021 48.7982 31.644 48.7982 30.8399C48.7982 29.9711 48.952 29.1806 49.2596 28.4683C49.5726 27.756 49.9935 27.1408 50.5223 26.6228C51.0566 26.0993 51.6582 25.6973 52.3273 25.4167C53.0019 25.1361 53.698 24.9958 54.4157 24.9958C55.2036 24.9958 55.9806 25.1793 56.7469 25.5462C57.5132 25.9131 58.2039 26.5067 58.8191 27.327L56.6497 28.4926C56.3206 28.1202 55.959 27.8477 55.5651 27.675C55.1766 27.4969 54.7827 27.4079 54.3833 27.4079C53.9786 27.4079 53.5874 27.4916 53.2096 27.6588C52.8319 27.8261 52.4946 28.0636 52.1978 28.3711C51.9011 28.6787 51.6636 29.0457 51.4855 29.472C51.3129 29.8983 51.2265 30.3705 51.2265 30.8885C51.2265 31.3634 51.3075 31.8086 51.4693 32.2241C51.6366 32.6396 51.866 33.0038 52.1574 33.3168C52.4488 33.6244 52.786 33.8672 53.1692 34.0453C53.5523 34.218 53.9624 34.3043 54.3995 34.3043C54.6477 34.3043 54.8933 34.2719 55.1361 34.2072C55.3843 34.137 55.6245 34.0345 55.8565 33.8996C56.0885 33.7647 56.3071 33.592 56.5122 33.3816C56.7172 33.1711 56.9034 32.9229 57.0707 32.6369H55.5489V30.5323H59.9361C59.9793 31.3796 59.8632 32.1782 59.588 32.9283C59.3182 33.673 58.927 34.3313 58.4143 34.9033C57.9017 35.4753 57.3 35.9232 56.6093 36.247C55.9186 36.5707 55.1712 36.7326 54.3672 36.7326Z" fill="black"/>
<path d="M61.4772 36.5222L61.4691 28.4278H63.8974L63.9055 28.9377C64.1753 28.7057 64.4829 28.5249 64.8282 28.3954C65.1736 28.2659 65.5378 28.2012 65.921 28.2012C66.2124 28.2012 66.5092 28.2443 66.8114 28.3307L65.8562 30.7914C65.6674 30.705 65.4731 30.6618 65.2734 30.6618C65.0198 30.6618 64.7878 30.7239 64.5773 30.848C64.3723 30.9667 64.2077 31.1313 64.0836 31.3418C63.9648 31.5468 63.9055 31.7762 63.9055 32.0298V36.5222H61.4772Z" fill="black"/>
<path d="M70.8642 36.7326C70.1195 36.7326 69.4396 36.5411 68.8245 36.1579C68.2147 35.7748 67.7263 35.2622 67.3594 34.62C66.9978 33.9724 66.817 33.2575 66.817 32.475C66.817 31.8814 66.9223 31.3283 67.1327 30.8156C67.3432 30.2976 67.6319 29.8443 67.9988 29.4558C68.3712 29.0619 68.8029 28.7543 69.2939 28.533C69.785 28.3118 70.3084 28.2012 70.8642 28.2012C71.6089 28.2012 72.2862 28.3927 72.8959 28.7759C73.5111 29.159 73.9995 29.6743 74.361 30.3219C74.728 30.9694 74.9114 31.6871 74.9114 32.475C74.9114 33.0632 74.8062 33.6136 74.5957 34.1262C74.3853 34.6389 74.0939 35.0922 73.7215 35.4861C73.3546 35.8746 72.9256 36.1795 72.4345 36.4008C71.9489 36.622 71.4254 36.7326 70.8642 36.7326ZM70.8642 34.3043C71.1718 34.3043 71.447 34.2207 71.6899 34.0534C71.9381 33.8861 72.1324 33.6649 72.2727 33.3897C72.413 33.1091 72.4831 32.8042 72.4831 32.475C72.4831 32.135 72.4076 31.8247 72.2565 31.5441C72.1108 31.2635 71.9138 31.0423 71.6656 30.8804C71.4228 30.7131 71.1556 30.6295 70.8642 30.6295C70.562 30.6295 70.2868 30.7158 70.0386 30.8885C69.7958 31.0558 69.6015 31.2797 69.4558 31.5603C69.3155 31.8409 69.2454 32.1458 69.2454 32.475C69.2454 32.8204 69.3182 33.1306 69.4639 33.4058C69.615 33.6811 69.812 33.8996 70.0548 34.0615C70.303 34.2234 70.5728 34.3043 70.8642 34.3043Z" fill="black"/>
<path d="M80.3109 36.5222H77.9311L75.2276 28.4278H77.6074L79.1291 32.9768L80.6346 28.4278H82.9982L84.5038 32.9768L86.0255 28.4278H88.4053L85.7017 36.5222H83.322L81.8164 31.9731L80.3109 36.5222Z" fill="black"/>
<path d="M94.3145 30.8561H92.9385V36.5222H90.5102V30.8561H89.4579V28.4278H90.5102V25.8862H92.9385V28.4278H94.3145V30.8561Z" fill="black"/>
<path d="M103.376 31.3499V36.5222H100.948V32.0298C100.948 31.7762 100.886 31.5468 100.761 31.3418C100.637 31.1313 100.473 30.9667 100.268 30.848C100.063 30.7239 99.8333 30.6618 99.5797 30.6618C99.326 30.6618 99.094 30.7239 98.8836 30.848C98.6785 30.9667 98.5139 31.1313 98.3898 31.3418C98.2711 31.5468 98.2117 31.7762 98.2117 32.0298V36.5222H95.7834V25.5462H98.2117V28.9377C98.4815 28.7057 98.7891 28.5249 99.1345 28.3954C99.4798 28.2659 99.8441 28.2012 100.227 28.2012C100.81 28.2012 101.339 28.3442 101.814 28.6302C102.289 28.9108 102.666 29.2885 102.947 29.7634C103.233 30.2382 103.376 30.7671 103.376 31.3499Z" fill="black"/>
<path d="M109.043 25.1901H110.727V38.9667H109.043V25.1901Z" fill="black"/>
<path d="M120.762 36.7326C120.141 36.7326 119.545 36.6355 118.973 36.4412C118.401 36.247 117.902 35.9691 117.475 35.6075C117.049 35.2406 116.744 34.8062 116.561 34.3043L118.139 33.7134C118.231 33.9725 118.406 34.2045 118.665 34.4095C118.93 34.6092 119.243 34.7657 119.604 34.879C119.971 34.9923 120.357 35.049 120.762 35.049C121.193 35.049 121.598 34.9789 121.976 34.8386C122.359 34.6982 122.667 34.504 122.899 34.2558C123.136 34.0075 123.255 33.7161 123.255 33.3816C123.255 33.0362 123.131 32.7529 122.882 32.5317C122.64 32.3104 122.327 32.135 121.944 32.0055C121.566 31.876 121.172 31.7789 120.762 31.7141C119.969 31.5846 119.256 31.3957 118.625 31.1475C117.999 30.8993 117.502 30.5512 117.135 30.1033C116.774 29.6554 116.593 29.0727 116.593 28.355C116.593 27.6804 116.785 27.0922 117.168 26.5904C117.556 26.0885 118.066 25.7 118.698 25.4248C119.334 25.1442 120.022 25.0039 120.762 25.0039C121.372 25.0039 121.96 25.101 122.526 25.2953C123.098 25.4841 123.6 25.7621 124.032 26.129C124.469 26.4905 124.782 26.9303 124.971 27.4484L123.376 28.0231C123.284 27.7587 123.109 27.5293 122.85 27.3351C122.591 27.1354 122.278 26.9789 121.911 26.8656C121.55 26.7523 121.166 26.6956 120.762 26.6956C120.33 26.6902 119.925 26.7604 119.548 26.9061C119.175 27.0464 118.87 27.2406 118.633 27.4889C118.396 27.7371 118.277 28.0258 118.277 28.355C118.277 28.7597 118.387 29.0673 118.609 29.2777C118.83 29.4882 119.127 29.6447 119.499 29.7472C119.877 29.8443 120.298 29.9334 120.762 30.0143C121.506 30.133 122.194 30.33 122.826 30.6052C123.463 30.8804 123.973 31.2473 124.356 31.706C124.744 32.1593 124.938 32.7178 124.938 33.3816C124.938 34.0507 124.744 34.6389 124.356 35.1461C123.973 35.648 123.463 36.0392 122.826 36.3198C122.194 36.595 121.506 36.7326 120.762 36.7326Z" fill="black" fill-opacity="0.6"/>
<path d="M130.102 36.7326C129.357 36.7326 128.677 36.5411 128.062 36.1579C127.452 35.7748 126.964 35.2622 126.597 34.62C126.235 33.9724 126.055 33.2575 126.055 32.475C126.055 31.8814 126.16 31.3283 126.37 30.8156C126.581 30.2976 126.869 29.8443 127.236 29.4558C127.609 29.0619 128.04 28.7543 128.531 28.533C129.023 28.3118 129.546 28.2012 130.102 28.2012C130.846 28.2012 131.524 28.3927 132.133 28.7759C132.749 29.159 133.237 29.6743 133.599 30.3219C133.966 30.9694 134.149 31.6871 134.149 32.475C134.149 33.0632 134.044 33.6136 133.833 34.1262C133.623 34.6389 133.331 35.0922 132.959 35.4861C132.592 35.8746 132.163 36.1795 131.672 36.4008C131.186 36.622 130.663 36.7326 130.102 36.7326ZM130.102 35.049C130.55 35.049 130.952 34.9303 131.308 34.6929C131.664 34.4554 131.945 34.1424 132.15 33.7539C132.36 33.36 132.465 32.9337 132.465 32.475C132.465 32.0055 132.357 31.5738 132.142 31.1799C131.931 30.786 131.648 30.473 131.292 30.2409C130.936 30.0035 130.539 29.8848 130.102 29.8848C129.659 29.8848 129.257 30.0035 128.896 30.2409C128.54 30.4784 128.256 30.7941 128.046 31.188C127.841 31.5819 127.738 32.0109 127.738 32.475C127.738 32.9553 127.846 33.3897 128.062 33.7782C128.278 34.1667 128.564 34.477 128.92 34.709C129.282 34.9357 129.675 35.049 130.102 35.049Z" fill="black" fill-opacity="0.6"/>
<path d="M137.679 26.5904V28.4278H139.962V30.1114H137.679V36.5222H135.996V30.1114H135.032V28.4278H135.996V26.5904C135.996 26.1479 136.104 25.7459 136.319 25.3843C136.535 25.0174 136.824 24.726 137.186 24.5101C137.552 24.2943 137.96 24.1863 138.408 24.1863C138.732 24.1863 139.047 24.2511 139.355 24.3806C139.662 24.5101 139.938 24.7098 140.18 24.9796L138.974 26.1695C138.915 26.0723 138.831 25.9995 138.723 25.9509C138.621 25.897 138.516 25.87 138.408 25.87C138.208 25.87 138.035 25.9401 137.89 26.0804C137.749 26.2207 137.679 26.3907 137.679 26.5904Z" fill="black" fill-opacity="0.6"/>
<path d="M145.817 30.1114H144.117L144.109 36.5222H142.426L142.434 30.1114H141.147V28.4278H142.434L142.426 25.8862H144.109L144.117 28.4278H145.817V30.1114Z" fill="black" fill-opacity="0.6"/>
<path d="M151.168 36.5222H149.492L146.781 28.4278H148.432L150.342 34.1101L152.236 28.4278H153.936L155.83 34.1101L157.732 28.4278H159.384L156.68 36.5222H154.988L153.078 30.7995L151.168 36.5222Z" fill="black" fill-opacity="0.6"/>
<path d="M166.622 28.4278H168.306V36.5222H166.614L166.549 35.3485C166.312 35.764 165.991 36.0986 165.586 36.3522C165.181 36.6058 164.704 36.7326 164.153 36.7326C163.56 36.7326 163.001 36.622 162.478 36.4008C161.954 36.1741 161.493 35.8611 161.094 35.4618C160.7 35.0625 160.392 34.6038 160.171 34.0858C159.95 33.5623 159.839 33.0011 159.839 32.4021C159.839 31.8247 159.947 31.2824 160.163 30.7752C160.379 30.2625 160.678 29.8146 161.061 29.4315C161.445 29.0484 161.887 28.7489 162.389 28.533C162.896 28.3118 163.438 28.2012 164.016 28.2012C164.604 28.2012 165.122 28.3361 165.57 28.6059C166.023 28.8703 166.398 29.2103 166.695 29.6258L166.622 28.4278ZM164.113 35.1057C164.588 35.1057 165.003 34.9896 165.36 34.7576C165.716 34.5202 165.991 34.2018 166.185 33.8025C166.385 33.4031 166.485 32.9607 166.485 32.475C166.485 31.9839 166.385 31.5387 166.185 31.1394C165.985 30.7401 165.708 30.4244 165.351 30.1924C165.001 29.9549 164.588 29.8362 164.113 29.8362C163.643 29.8362 163.214 29.9549 162.826 30.1924C162.437 30.4298 162.13 30.7482 161.903 31.1475C161.677 31.5468 161.563 31.9893 161.563 32.475C161.563 32.9661 161.679 33.4112 161.911 33.8106C162.149 34.2045 162.459 34.5202 162.842 34.7576C163.231 34.9896 163.654 35.1057 164.113 35.1057Z" fill="black" fill-opacity="0.6"/>
<path d="M169.921 36.5222V28.4278H171.605V29.2858C171.885 28.9512 172.231 28.6868 172.641 28.4926C173.051 28.2983 173.493 28.2012 173.968 28.2012C174.27 28.2012 174.57 28.2416 174.867 28.3226L174.195 30.0224C173.984 29.9415 173.774 29.901 173.564 29.901C173.207 29.901 172.881 29.99 172.584 30.1681C172.287 30.3408 172.05 30.5755 171.872 30.8723C171.694 31.1691 171.605 31.4983 171.605 31.8598V36.5222H169.921Z" fill="black" fill-opacity="0.6"/>
<path d="M178.984 36.7326C178.24 36.7326 177.56 36.5411 176.944 36.1579C176.335 35.7748 175.846 35.2622 175.479 34.62C175.118 33.9724 174.937 33.2575 174.937 32.475C174.937 31.8814 175.042 31.3283 175.253 30.8156C175.463 30.2976 175.752 29.8443 176.119 29.4558C176.491 29.0619 176.923 28.7543 177.414 28.533C177.905 28.3118 178.428 28.2012 178.984 28.2012C179.605 28.2012 180.174 28.3307 180.692 28.5897C181.21 28.8433 181.653 29.1968 182.02 29.6501C182.387 30.0979 182.656 30.616 182.829 31.2042C183.002 31.787 183.053 32.4075 182.983 33.0659H176.742C176.812 33.4382 176.947 33.7755 177.147 34.0777C177.352 34.3745 177.611 34.6092 177.924 34.7819C178.242 34.9546 178.596 35.0436 178.984 35.049C179.394 35.049 179.767 34.9465 180.101 34.7414C180.441 34.5364 180.719 34.2531 180.935 33.8915L182.643 34.2881C182.319 35.0058 181.831 35.594 181.178 36.0527C180.525 36.506 179.794 36.7326 178.984 36.7326ZM176.685 31.7789H181.283C181.229 31.3903 181.091 31.0396 180.87 30.7266C180.654 30.4082 180.382 30.1573 180.053 29.9738C179.729 29.785 179.373 29.6905 178.984 29.6905C178.601 29.6905 178.245 29.7823 177.916 29.9657C177.592 30.1492 177.322 30.4001 177.106 30.7185C176.896 31.0315 176.756 31.385 176.685 31.7789Z" fill="black" fill-opacity="0.6"/>
<path d="M192.394 36.7326C191.773 36.7326 191.177 36.6355 190.605 36.4412C190.033 36.247 189.534 35.9691 189.107 35.6075C188.681 35.2406 188.376 34.8062 188.193 34.3043L189.771 33.7134C189.863 33.9725 190.038 34.2045 190.297 34.4095C190.562 34.6092 190.875 34.7657 191.236 34.879C191.603 34.9923 191.989 35.049 192.394 35.049C192.826 35.049 193.23 34.9789 193.608 34.8386C193.991 34.6982 194.299 34.504 194.531 34.2558C194.768 34.0075 194.887 33.7161 194.887 33.3816C194.887 33.0362 194.763 32.7529 194.515 32.5317C194.272 32.3104 193.959 32.135 193.576 32.0055C193.198 31.876 192.804 31.7789 192.394 31.7141C191.601 31.5846 190.888 31.3957 190.257 31.1475C189.631 30.8993 189.135 30.5512 188.768 30.1033C188.406 29.6554 188.225 29.0727 188.225 28.355C188.225 27.6804 188.417 27.0922 188.8 26.5904C189.188 26.0885 189.698 25.7 190.33 25.4248C190.967 25.1442 191.655 25.0039 192.394 25.0039C193.004 25.0039 193.592 25.101 194.158 25.2953C194.73 25.4841 195.232 25.7621 195.664 26.129C196.101 26.4905 196.414 26.9303 196.603 27.4484L195.008 28.0231C194.917 27.7587 194.741 27.5293 194.482 27.3351C194.223 27.1354 193.91 26.9789 193.543 26.8656C193.182 26.7523 192.799 26.6956 192.394 26.6956C191.962 26.6902 191.557 26.7604 191.18 26.9061C190.807 27.0464 190.502 27.2406 190.265 27.4889C190.028 27.7371 189.909 28.0258 189.909 28.355C189.909 28.7597 190.019 29.0673 190.241 29.2777C190.462 29.4882 190.759 29.6447 191.131 29.7472C191.509 29.8443 191.93 29.9334 192.394 30.0143C193.138 30.133 193.827 30.33 194.458 30.6052C195.095 30.8804 195.605 31.2473 195.988 31.706C196.376 32.1593 196.571 32.7178 196.571 33.3816C196.571 34.0507 196.376 34.6389 195.988 35.1461C195.605 35.648 195.095 36.0392 194.458 36.3198C193.827 36.595 193.138 36.7326 192.394 36.7326Z" fill="black" fill-opacity="0.6"/>
<path d="M201.734 36.7326C200.989 36.7326 200.309 36.5411 199.694 36.1579C199.084 35.7748 198.596 35.2622 198.229 34.62C197.867 33.9724 197.687 33.2575 197.687 32.475C197.687 31.8814 197.792 31.3283 198.002 30.8156C198.213 30.2976 198.501 29.8443 198.868 29.4558C199.241 29.0619 199.672 28.7543 200.164 28.533C200.655 28.3118 201.178 28.2012 201.734 28.2012C202.479 28.2012 203.156 28.3927 203.766 28.7759C204.381 29.159 204.869 29.6743 205.231 30.3219C205.598 30.9694 205.781 31.6871 205.781 32.475C205.781 33.0632 205.676 33.6136 205.465 34.1262C205.255 34.6389 204.964 35.0922 204.591 35.4861C204.224 35.8746 203.795 36.1795 203.304 36.4008C202.818 36.622 202.295 36.7326 201.734 36.7326ZM201.734 35.049C202.182 35.049 202.584 34.9303 202.94 34.6929C203.296 34.4554 203.577 34.1424 203.782 33.7539C203.992 33.36 204.097 32.9337 204.097 32.475C204.097 32.0055 203.989 31.5738 203.774 31.1799C203.563 30.786 203.28 30.473 202.924 30.2409C202.568 30.0035 202.171 29.8848 201.734 29.8848C201.291 29.8848 200.889 30.0035 200.528 30.2409C200.172 30.4784 199.888 30.7941 199.678 31.188C199.473 31.5819 199.37 32.0109 199.37 32.475C199.37 32.9553 199.478 33.3897 199.694 33.7782C199.91 34.1667 200.196 34.477 200.552 34.709C200.914 34.9357 201.308 35.049 201.734 35.049Z" fill="black" fill-opacity="0.6"/>
<path d="M206.978 36.5222V24.3806H208.662V36.5222H206.978Z" fill="black" fill-opacity="0.6"/>
<path d="M210.275 33.4868V28.4278H211.958V33.074C211.958 33.4355 212.047 33.7647 212.225 34.0615C212.404 34.3583 212.641 34.5957 212.938 34.7738C213.235 34.9465 213.561 35.0328 213.917 35.0328C214.279 35.0328 214.605 34.9465 214.897 34.7738C215.193 34.5957 215.428 34.3583 215.601 34.0615C215.779 33.7647 215.868 33.4355 215.868 33.074V28.4278H217.552L217.56 36.5222H215.876L215.868 35.648C215.593 35.9826 215.25 36.247 214.84 36.4412C214.43 36.6355 213.99 36.7326 213.521 36.7326C212.922 36.7326 212.377 36.5869 211.885 36.2955C211.394 36.0041 211.003 35.6129 210.712 35.1219C210.42 34.6308 210.275 34.0858 210.275 33.4868Z" fill="black" fill-opacity="0.6"/>
<path d="M223.457 30.1114H221.757L221.749 36.5222H220.065L220.073 30.1114H218.786V28.4278H220.073L220.065 25.8862H221.749L221.757 28.4278H223.457V30.1114Z" fill="black" fill-opacity="0.6"/>
<path d="M224.795 28.4278H226.479V36.5222H224.795V28.4278ZM225.653 27.2541C225.394 27.2541 225.178 27.1705 225.006 27.0032C224.833 26.8359 224.747 26.6255 224.747 26.3718C224.747 26.1236 224.833 25.9158 225.006 25.7486C225.178 25.5759 225.392 25.4895 225.645 25.4895C225.893 25.4895 226.104 25.5759 226.277 25.7486C226.449 25.9158 226.536 26.1236 226.536 26.3718C226.536 26.6255 226.449 26.8359 226.277 27.0032C226.109 27.1705 225.901 27.2541 225.653 27.2541Z" fill="black" fill-opacity="0.6"/>
<path d="M231.835 36.7326C231.09 36.7326 230.41 36.5411 229.795 36.1579C229.185 35.7748 228.697 35.2622 228.33 34.62C227.968 33.9724 227.788 33.2575 227.788 32.475C227.788 31.8814 227.893 31.3283 228.103 30.8156C228.314 30.2976 228.602 29.8443 228.969 29.4558C229.342 29.0619 229.773 28.7543 230.265 28.533C230.756 28.3118 231.279 28.2012 231.835 28.2012C232.579 28.2012 233.257 28.3927 233.867 28.7759C234.482 29.159 234.97 29.6743 235.332 30.3219C235.699 30.9694 235.882 31.6871 235.882 32.475C235.882 33.0632 235.777 33.6136 235.566 34.1262C235.356 34.6389 235.064 35.0922 234.692 35.4861C234.325 35.8746 233.896 36.1795 233.405 36.4008C232.919 36.622 232.396 36.7326 231.835 36.7326ZM231.835 35.049C232.283 35.049 232.685 34.9303 233.041 34.6929C233.397 34.4554 233.678 34.1424 233.883 33.7539C234.093 33.36 234.198 32.9337 234.198 32.475C234.198 32.0055 234.09 31.5738 233.875 31.1799C233.664 30.786 233.381 30.473 233.025 30.2409C232.669 30.0035 232.272 29.8848 231.835 29.8848C231.392 29.8848 230.99 30.0035 230.629 30.2409C230.273 30.4784 229.989 30.7941 229.779 31.188C229.574 31.5819 229.471 32.0109 229.471 32.475C229.471 32.9553 229.579 33.3897 229.795 33.7782C230.011 34.1667 230.297 34.477 230.653 34.709C231.015 34.9357 231.408 35.049 231.835 35.049Z" fill="black" fill-opacity="0.6"/>
<path d="M244.475 31.447V36.5222H242.791V31.8598C242.791 31.4983 242.702 31.1691 242.524 30.8723C242.351 30.5755 242.117 30.3408 241.82 30.1681C241.528 29.99 241.199 29.901 240.832 29.901C240.476 29.901 240.15 29.99 239.853 30.1681C239.556 30.3408 239.319 30.5755 239.14 30.8723C238.962 31.1691 238.873 31.4983 238.873 31.8598V36.5222H237.19V28.4278H238.873V29.2858C239.154 28.9512 239.499 28.6868 239.909 28.4926C240.32 28.2983 240.762 28.2012 241.237 28.2012C241.836 28.2012 242.381 28.3469 242.872 28.6383C243.363 28.9297 243.752 29.3209 244.038 29.8119C244.329 30.303 244.475 30.848 244.475 31.447Z" fill="black" fill-opacity="0.6"/>
<path d="M248.519 36.676C248.092 36.649 247.677 36.5626 247.272 36.417C246.867 36.2713 246.511 36.0743 246.204 35.8261C245.902 35.5724 245.675 35.2756 245.524 34.9357L246.956 34.3205C247.027 34.4662 247.148 34.6092 247.321 34.7495C247.499 34.8898 247.707 35.0058 247.944 35.0976C248.181 35.1839 248.43 35.2271 248.689 35.2271C248.942 35.2271 249.177 35.192 249.393 35.1219C249.614 35.0463 249.795 34.933 249.935 34.7819C250.076 34.6308 250.146 34.45 250.146 34.2396C250.146 34.0021 250.065 33.8187 249.903 33.6891C249.746 33.5542 249.549 33.4517 249.312 33.3816C249.075 33.3114 248.837 33.244 248.6 33.1792C248.071 33.0605 247.585 32.8986 247.143 32.6935C246.706 32.4831 246.358 32.216 246.098 31.8922C245.839 31.563 245.71 31.161 245.71 30.6861C245.71 30.1681 245.85 29.7202 246.131 29.3425C246.411 28.9593 246.778 28.6652 247.232 28.4602C247.69 28.2551 248.179 28.1526 248.697 28.1526C249.344 28.1526 249.938 28.2902 250.478 28.5654C251.017 28.8406 251.43 29.2184 251.716 29.6986L250.38 30.4919C250.299 30.33 250.178 30.1843 250.016 30.0548C249.854 29.9253 249.671 29.8227 249.466 29.7472C249.261 29.6662 249.048 29.6204 248.826 29.6096C248.551 29.5988 248.295 29.6312 248.057 29.7067C247.825 29.7769 247.639 29.8902 247.499 30.0467C247.359 30.2032 247.288 30.4028 247.288 30.6457C247.288 30.8831 247.372 31.0612 247.539 31.1799C247.707 31.2932 247.917 31.3849 248.171 31.4551C248.43 31.5253 248.694 31.6035 248.964 31.6898C249.444 31.8409 249.895 32.0271 250.316 32.2484C250.737 32.4642 251.077 32.7313 251.336 33.0497C251.595 33.3681 251.719 33.7566 251.708 34.2153C251.708 34.7225 251.554 35.1677 251.247 35.5509C250.944 35.934 250.55 36.2254 250.065 36.425C249.579 36.6247 249.064 36.7084 248.519 36.676Z" fill="black" fill-opacity="0.6"/>
</svg>
